<svg xmlns="http://www.w3.org/2000/svg" viewBox="0 0 500 500">
  <g id="freepik--background-complete--inject-20">
    <rect y="382.4" width="500" height="0.25" style="fill:#ebebeb"></rect>
    <rect x="416.78" y="398.49" width="33.12" height="0.25" style="fill:#ebebeb"></rect>
    <rect x="322.53" y="401.21" width="8.69" height="0.25" style="fill:#ebebeb"></rect>
    <rect x="396.59" y="389.21" width="19.19" height="0.25" style="fill:#ebebeb"></rect>
    <rect x="52.46" y="390.89" width="43.19" height="0.25" style="fill:#ebebeb"></rect>
    <rect x="104.56" y="390.89" width="6.33" height="0.25" style="fill:#ebebeb"></rect>
    <rect x="131.47" y="395.11" width="93.68" height="0.25" style="fill:#ebebeb"></rect>
    <path
      d="M237,337.8H43.91a5.71,5.71,0,0,1-5.7-5.71V60.66A5.71,5.71,0,0,1,43.91,55H237a5.71,5.71,0,0,1,5.71,5.71V332.09A5.71,5.71,0,0,1,237,337.8ZM43.91,55.2a5.46,5.46,0,0,0-5.45,5.46V332.09a5.46,5.46,0,0,0,5.45,5.46H237a5.47,5.47,0,0,0,5.46-5.46V60.66A5.47,5.47,0,0,0,237,55.2Z"
      style="fill:#ebebeb"></path>
    <path
      d="M453.31,337.8H260.21a5.72,5.72,0,0,1-5.71-5.71V60.66A5.72,5.72,0,0,1,260.21,55h193.1A5.71,5.71,0,0,1,459,60.66V332.09A5.71,5.71,0,0,1,453.31,337.8ZM260.21,55.2a5.47,5.47,0,0,0-5.46,5.46V332.09a5.47,5.47,0,0,0,5.46,5.46h193.1a5.47,5.47,0,0,0,5.46-5.46V60.66a5.47,5.47,0,0,0-5.46-5.46Z"
      style="fill:#ebebeb"></path>
    <polygon points="83 382.4 390.6 382.4 236.8 127.83 83 382.4" style="fill:#f0f0f0"></polygon>
    <polygon points="197.8 382.4 479 382.4 338.4 182.25 197.8 382.4" style="fill:#f5f5f5"></polygon>
    <polygon points="34.56 382.4 277.6 382.4 127.44 241.22 34.56 382.4" style="fill:#fafafa"></polygon>
    <polygon points="225.15 382.4 385.64 382.4 305.39 313.68 225.15 382.4" style="fill:#fff"></polygon>
    <path
      d="M120.07,105.34H325S315.63,88.9,297.85,88.9,296.74,98,283,98s-28-29.56-71.78-29.56S203.63,90.68,181,90.68,85.74,71,120.07,105.34Z"
      style="fill:#fafafa"></path>
    <path
      d="M73.87,196.38H176.31s-4.66-8.23-13.55-8.23-.56,4.56-7.45,4.56-14-14.78-35.88-14.78S115.65,189,104.31,189,56.7,179.21,73.87,196.38Z"
      style="fill:#fafafa"></path>
    <path
      d="M415.53,162.33c-8.65,0-.54,4.43-7.24,4.43s-13.63-14.38-34.93-14.38c-20.95,0-5.14,12.23-15.07,12.65h-.54c-9.94,0-20.2-21.32-51.77-21.32s-5.45,16-21.8,16-68.69-14.18-43.92,10.58H428.73S424.19,162.33,415.53,162.33Z"
      style="fill:#fafafa"></path>
  </g>
  <g id="freepik--Shadow--inject-20">
    <ellipse id="freepik--path--inject-20" cx="250" cy="416.24" rx="193.89" ry="11.32" style="fill:#f5f5f5"></ellipse>
  </g>
  <g id="freepik--Fire--inject-20">
    <path
      d="M397.23,406.9c19,0,26.46-21,19.61-38.53s-4-22.29-4-22.29-8.46,9.45-8.46,16.47c-6.68-8.07,9.87-25.43,3-42.81-5.09,11.59-8.48,17.4-23.85,34.41C369.08,370.13,360.13,406.9,397.23,406.9Z"
      style="fill:#fa704c"></path>
    <path
      d="M393.46,404.19c-10.34,0-15.15-12.35-10.26-21.91s2.49-12.62,2.49-12.62,5.16,5.62,4.7,9.44c4.17-4.4-1.68-15.18,3.19-24.65,2,6.31,1.52,10.75,8.71,20.08C409.87,384.35,413.68,404.19,393.46,404.19Z"
      style="fill:#fafafa;opacity:0.5"></path>
    <path
      d="M395.45,400.5c4.61,0,6.75-5.5,4.57-9.77s-1.11-5.62-1.11-5.62-2.3,2.5-2.1,4.21c-1.85-2,.75-6.78-1.42-11-.9,2.82-.67,4.8-3.88,8.95C388.13,391.66,386.43,400.5,395.45,400.5Z"
      style="fill:#fafafa;opacity:0.5"></path>
    <path d="M371.57,412a8.2,8.2,0,0,1,8.2-8.2H409.9V412Z" style="fill:#fa704c"></path>
    <path d="M371.57,412a8.2,8.2,0,0,1,8.2-8.2H409.9V412Z" style="opacity:0.2"></path>
    <path d="M409.9,403.78a8.2,8.2,0,0,1,8.2,8.2H401.7A8.2,8.2,0,0,1,409.9,403.78Z" style="fill:#fa704c"></path>
  </g>
  <g id="freepik--Tent--inject-20">
    <path
      d="M351,408.72a.52.52,0,0,0,.45-.34.68.68,0,0,0-.22-.82c-54.39-33.49-78.45-129.76-78.68-130.73a.5.5,0,0,0-.63-.41.64.64,0,0,0-.34.76c.24,1,24.42,97.74,79.19,131.47A.51.51,0,0,0,351,408.72Z"
      style="fill:#fa704c"></path>
    <polygon points="294.66 411.86 249.45 411.86 272.06 277 294.66 411.86" style="fill:#fff"></polygon>
    <polygon points="229.73 411.86 272.06 277 154.97 277 101.85 411.86 229.73 411.86" style="fill:#fa704c"></polygon>
    <rect x="185.29" y="273.59" width="16.31" height="0.98" style="fill:#fa704c"></rect>
    <rect x="172.83" y="273.59" width="6.01" height="0.98" style="fill:#fa704c"></rect>
    <polygon points="229.73 411.86 272.06 277 154.97 277 101.85 411.86 229.73 411.86" style="opacity:0.2"></polygon>
    <polygon points="264.92 411.86 272.06 277 229.73 411.86 264.92 411.86" style="fill:#fa704c"></polygon>
    <polygon points="279.19 411.86 272.06 277 314.38 411.86 279.19 411.86" style="fill:#fa704c"></polygon>
    <path
      d="M158.1,412.47c38.69,0,67.75-36.81,85.32-67.69a360.16,360.16,0,0,0,29.11-67.57.65.65,0,0,0-.31-.78.48.48,0,0,0-.64.37,358.33,358.33,0,0,1-29,67.3c-17.43,30.63-46.23,67.15-84.48,67.15a.56.56,0,0,0-.5.61A.56.56,0,0,0,158.1,412.47Z"
      style="fill:#fff"></path>
    <rect x="81.64" y="360.22" width="88.17" height="4.91" transform="translate(251.44 725.34) rotate(180)"
      style="fill:#fa704c"></rect>
    <rect x="81.64" y="360.22" width="31.7" height="4.91" transform="translate(194.97 725.34) rotate(180)"
      style="opacity:0.2"></rect>
    <polygon points="140.98 411.86 145.31 411.86 110.47 365.12 106.13 365.12 140.98 411.86" style="fill:#fa704c">
    </polygon>
    <polygon points="110.47 411.86 106.13 411.86 140.98 365.12 145.31 365.12 110.47 411.86" style="fill:#fa704c">
    </polygon>
    <path d="M156,346.19c0,7.75-7.87,14-17.58,14s-17.57-6.28-17.57-14Z" style="fill:#fa704c"></path>
  </g>
  <g id="freepik--Character--inject-20">
    <path
      d="M297.59,152.37s-8.87,22.7-.45,65h40.21c.28-6.17-3.6-36.28,2.35-65.36a105.49,105.49,0,0,0-13.46-1.7,147.53,147.53,0,0,0-17.09,0A74.79,74.79,0,0,0,297.59,152.37Z"
      style="fill:#263238"></path>
    <path
      d="M299.72,167c-1,3.84-2.12,7.73-3.2,11.57s-2.15,7.7-3.15,11.51c-.47,1.89-1,3.8-1.35,5.6l-.3,1.31a7,7,0,0,1-.21.89s0,0-.06-.24a3.44,3.44,0,0,0-.16-.69,4.52,4.52,0,0,0-.41-1,3.56,3.56,0,0,0-.26-.41,4.43,4.43,0,0,0-.36-.45,4.9,4.9,0,0,0-3.63-1.66,4.48,4.48,0,0,0-1,.08,3.88,3.88,0,0,0-.69.18,4.53,4.53,0,0,0-.52.21,3,3,0,0,0-.4.22,3.33,3.33,0,0,0-.48.32,3.27,3.27,0,0,0-.66.66c-.17.23-.16.26-.16.28a3.25,3.25,0,0,0,.53-.74c.46-.72.94-1.57,1.4-2.42l1.44-2.61c1-1.75,2-3.53,3.06-5.26l5.58,1.87a60.6,60.6,0,0,1-1,6.2,53,53,0,0,1-1.64,6.27,13.58,13.58,0,0,1-.86,2,5.84,5.84,0,0,1-1.52,1.83,5.24,5.24,0,0,1-.55.38,4.76,4.76,0,0,1-.45.24,4.68,4.68,0,0,1-.56.22,4.76,4.76,0,0,1-.74.2,4.85,4.85,0,0,1-1,.08,5.13,5.13,0,0,1-2.26-.56,5,5,0,0,1-1.54-1.18,4,4,0,0,1-.39-.49A4.8,4.8,0,0,1,282,201a5.34,5.34,0,0,1-.49-1.13,7.51,7.51,0,0,1-.23-1.06,9.68,9.68,0,0,1-.08-1,17.51,17.51,0,0,1,0-2.14c0-.6.08-1.15.16-1.69.26-2.2.6-4.25,1-6.32.77-4.11,1.67-8.12,2.66-12.11s2.06-7.91,3.29-11.86Z"
      style="fill:#b55b52"></path>
    <path
      d="M306.51,157.51c2.54,6.73-10.3,26.53-10.3,26.53l-15-8.16a91.32,91.32,0,0,1,8.69-17.6C295.19,150.35,303.73,150.13,306.51,157.51Z"
      style="fill:#263238"></path>
    <path
      d="M297.82,152a20.41,20.41,0,0,1,6.26-1.4.24.24,0,0,1,.22.34c-1.23,2.4-4,7.51-3.71,27.94.28,18.47-3.87,26-5.22,27.88a.28.28,0,0,1-.51-.12l-.41-2.51a.9.9,0,0,1,0-.4c.39-1.32,2.6-9.5,1.52-22-1.89-21.94,1.4-29,1.74-29.64A.23.23,0,0,1,297.82,152Z"
      style="fill:#fa704c"></path>
    <polygon points="301.89 177.55 302.6 185.46 296.26 186.41 295.06 177.73 301.89 177.55" style="fill:#b55b52">
    </polygon>
    <path d="M289.38,182.12l5.68-4.39,1.2,8.68s-5.09,3.67-8.59.24Z" style="fill:#b55b52"></path>
    <path
      d="M324.55,131c-1.08,5.5-2.15,15.58,1.69,19.25,0,0-2.21,5.58-12.43,5.58-9.33,0-4.66-5.58-4.66-5.58,6.13-1.46,6-6,4.91-10.29Z"
      style="fill:#b55b52"></path>
    <path d="M320.27,134.69l-6.21,5.3a17.2,17.2,0,0,1,.53,3c2,1.9,5.56-2.91,5.81-5.36A8.31,8.31,0,0,0,320.27,134.69Z"
      style="opacity:0.2"></path>
    <path d="M307.07,114.12c-3.7,1.56-5.71,11.94-1,14.32S314.08,111.15,307.07,114.12Z" style="fill:#263238"></path>
    <path
      d="M325.2,122.76c-.45,7.45-.34,11.83-4.1,15.65-5.66,5.75-14.85,2.34-16.63-5.1-1.6-6.69-.58-17.74,6.71-20.7A10.17,10.17,0,0,1,325.2,122.76Z"
      style="fill:#b55b52"></path>
    <path
      d="M328.1,113.81c-2.43-7.21-21.05-6.11-23.17-1.37-1.19,2.67.62,3.54,1.9,3.71,2.91-2.58,10.47-.4,13.3.14,0,0-.42,1,.87,3.39,2.82,5.26-3.89,11,2.5,10.08C326.43,129.31,334.93,116.79,328.1,113.81Z"
      style="fill:#263238"></path>
    <circle cx="327.09" cy="106" r="4.36" style="fill:#fa704c"></circle>
    <circle cx="327.09" cy="106" r="4.36" style="fill:#fff;opacity:0.2"></circle>
    <path
      d="M304,116.78c-.09-1.51-.73-5.43,5.78-8.84,7.23-3.8,20.07-2.41,22.09,4.15,1.14,3.71-1.5,6.89-1.42,8.38C327,118.85,304,116.78,304,116.78Z"
      style="fill:#fa704c"></path>
    <path
      d="M304,116.78c-.09-1.51-.73-5.43,5.78-8.84,7.23-3.8,20.07-2.41,22.09,4.15,1.14,3.71-1.5,6.89-1.42,8.38C327,118.85,304,116.78,304,116.78Z"
      style="opacity:0.1"></path>
    <path
      d="M303.57,116.25l-.65,2.69a.59.59,0,0,0,.67.73c2.84-.57,12.26-1.79,26.59,3.2a.58.58,0,0,0,.76-.41l.67-2.82a.59.59,0,0,0-.38-.71c-15.53-5.44-25.32-3.58-27.23-3.12A.57.57,0,0,0,303.57,116.25Z"
      style="fill:#fa704c"></path>
    <path
      d="M329.27,128.89a7.12,7.12,0,0,1-4,3.67c-2.34.84-3.69-1.21-3.19-3.51.45-2.07,2.21-5,4.63-4.86A3.19,3.19,0,0,1,329.27,128.89Z"
      style="fill:#b55b52"></path>
    <path
      d="M297.14,217.34s-15,59.8-18.07,82.53C275.89,323.52,269,391.74,269,391.74l11.95,2.45s15.93-65.66,20.44-88.65c4.92-25.06,22.19-88.2,22.19-88.2Z"
      style="fill:#fa704c"></path>
    <path
      d="M297.14,217.34s-15,59.8-18.07,82.53C275.89,323.52,269,391.74,269,391.74l11.95,2.45s15.93-65.66,20.44-88.65c4.92-25.06,22.19-88.2,22.19-88.2Z"
      style="fill:#fafafa;opacity:0.30000000000000004"></path>
    <path d="M315.19,221.76l3.5,13.69c-3.25,12.23-7.6,28.81-11.27,43.72A190.79,190.79,0,0,1,315.19,221.76Z"
      style="opacity:0.30000000000000004"></path>
    <path
      d="M311.41,217.34s3.41,61.45,8.09,83c5.13,23.56,29.57,98.07,29.57,98.07h13.77s-17.86-72.6-20.79-95.94c-3.17-25.32-4.7-85.11-4.7-85.11Z"
      style="fill:#fa704c"></path>
    <path
      d="M311.41,217.34s3.41,61.45,8.09,83c5.13,23.56,29.57,98.07,29.57,98.07h13.77s-17.86-72.6-20.79-95.94c-3.17-25.32-4.7-85.11-4.7-85.11Z"
      style="fill:#fafafa;opacity:0.30000000000000004"></path>
    <path d="M313.91,124.84c0,.61-.32,1.1-.72,1.1s-.72-.49-.72-1.1.32-1.1.72-1.1S313.91,124.23,313.91,124.84Z"
      style="fill:#263238"></path>
    <path d="M307.06,124.84c0,.61-.33,1.1-.72,1.1s-.72-.49-.72-1.1.32-1.1.72-1.1S307.06,124.23,307.06,124.84Z"
      style="fill:#263238"></path>
    <path d="M309.23,125.14a21.55,21.55,0,0,1-2.89,5.19,3.48,3.48,0,0,0,2.89.54Z" style="fill:#a02724"></path>
    <path
      d="M311,132.55a.18.18,0,0,1,0-.36,4.8,4.8,0,0,0,3.92-1.88.18.18,0,0,1,.24-.05.18.18,0,0,1,.06.25A5.12,5.12,0,0,1,311,132.55Z"
      style="fill:#263238"></path>
    <path
      d="M316,122.63a.37.37,0,0,1-.28-.14,2.83,2.83,0,0,0-2.28-1.19A.36.36,0,0,1,313,121a.34.34,0,0,1,.33-.38,3.52,3.52,0,0,1,2.9,1.47.35.35,0,0,1-.07.5A.36.36,0,0,1,316,122.63Z"
      style="fill:#263238"></path>
    <path
      d="M304,122.41a.33.33,0,0,1-.16,0,.35.35,0,0,1-.13-.48,3.56,3.56,0,0,1,2.68-1.84.36.36,0,0,1,.38.33.36.36,0,0,1-.33.38h0a2.84,2.84,0,0,0-2.11,1.48A.36.36,0,0,1,304,122.41Z"
      style="fill:#263238"></path>
    <path
      d="M346.82,160.11c2.09,5.16,3.94,10.28,5.6,15.57.84,2.64,1.62,5.31,2.31,8a69.63,69.63,0,0,1,1.75,8.61c.06.34.09.92.13,1.38a13.63,13.63,0,0,1,0,1.42c0,.47,0,.91-.07,1.36s-.09.88-.16,1.3a29.2,29.2,0,0,1-1.15,4.75,47.81,47.81,0,0,1-3.68,8.16,75.87,75.87,0,0,1-10,13.73l-4.72-3.52c1.2-2.25,2.47-4.63,3.57-7s2.18-4.72,3.09-7.08a45.59,45.59,0,0,0,2.16-7,18.22,18.22,0,0,0,.43-3.2,5.82,5.82,0,0,0,0-.72,4.79,4.79,0,0,0,0-.67,3.66,3.66,0,0,0-.07-.6c-.05-.21,0-.31-.12-.64-.48-2.22-1.25-4.71-2-7.17s-1.67-5-2.56-7.44c-1.79-5-3.67-10-5.5-15Z"
      style="fill:#b55b52"></path>
    <path
      d="M339.7,152c7.12,1,15.26,25.68,15.26,25.68L340,186.1s-6.58-11.72-9.82-20.43C326.8,156.55,332.07,150.87,339.7,152Z"
      style="fill:#263238"></path>
    <path
      d="M336,150.77a51.78,51.78,0,0,0-7.62-.73.7.7,0,0,0-.62.39c-2,3.47-8.72,17.07-8.2,30.72.55,14.25,13.3,25.31,17,26.59a.82.82,0,0,0,1.09-.78v-1.88a.81.81,0,0,0-.52-.76c-2.73-1.09-12.47-12.25-10-27,2.81-16.89,8-22.72,9.37-25.62A.67.67,0,0,0,336,150.77Z"
      style="fill:#fa704c"></path>
    <path d="M337.68,219.68l-5.53,4.56,8.19,3.09s4.71-4.14,2.15-8.32Z" style="fill:#b55b52"></path>
    <polygon points="330.45 230.86 338.02 233.3 340.34 227.33 332.15 224.24 330.45 230.86" style="fill:#b55b52">
    </polygon>
    <path d="M280.24,404l-13.46-2.36L270,375a1.15,1.15,0,0,1,1.32-1l13.53,2.14a1.15,1.15,0,0,1,.95,1.37Z"
      style="fill:#263238"></path>
    <path d="M365.45,408l-13.17,1.84-9.15-26.33a1.12,1.12,0,0,1,1-1.49l14.74-1.28a1.12,1.12,0,0,1,1.2.89Z"
      style="fill:#263238"></path>
    <path
      d="M353.83,405.58l9.81-1.74a.83.83,0,0,1,.84.59l2.37,8.2a1.39,1.39,0,0,1-1.26,1.75c-3.66.35-5.62.33-10.24.66-2.84.2-8.53,1.2-12.46,1.2s-4.45-3.89-2.84-4.25c7.23-1.58,9.95-3.75,12.26-5.83A2.25,2.25,0,0,1,353.83,405.58Z"
      style="fill:#263238"></path>
    <path
      d="M270.14,395.87l10.08,1.77a.82.82,0,0,1,.68.77l0,10.5a1.36,1.36,0,0,1-1.62,1.41c-3.62-.7-8.84-1.83-13.41-2.63-5.35-.94-10-1.46-16.29-2.56-3.79-.66-4.17-4.68-2.52-4.75a60,60,0,0,0,20.78-4.18A4.32,4.32,0,0,1,270.14,395.87Z"
      style="fill:#263238"></path>
  </g>
</svg>